<svg id="invisible_box" data-name="invisible box" xmlns="http://www.w3.org/2000/svg" xmlns:xlink="http://www.w3.org/1999/xlink" width="48" height="48" viewBox="0 0 48 48">
  <defs>
    <clipPath id="clip-path">
      <rect id="Rectangle_337" data-name="Rectangle 337" width="48" height="48" fill="#fff" stroke="#707070" stroke-width="1"/>
    </clipPath>
  </defs>
  <g id="Mask_Group_70" data-name="Mask Group 70" clip-path="url(#clip-path)">
    <g id="Group_741" data-name="Group 741" transform="translate(-12809.987 -2151.998)">
      <path id="Path_1262" data-name="Path 1262" d="M45.967,8.258H35.78V2.038A2.049,2.049,0,0,0,33.742,0H14.17a2.049,2.049,0,0,0-2.038,2.038v6.22H2.042A2.049,2.049,0,0,0,0,10.3V45.962A2.049,2.049,0,0,0,2.042,48H45.86A2.2,2.2,0,0,0,48,46.06V10.3a2.028,2.028,0,0,0-2.033-2.042ZM16.207,4.075H31.8V8.258H16.2ZM43.93,44.023H3.982v-31.8H43.93Z" transform="translate(12810 2152)"/>
      <g id="icons_Q2" data-name="icons Q2" transform="translate(12810.1 2156.892)">
        <path id="Path_1266" data-name="Path 1266" d="M18.6,32.4l-6-5.9a2.1,2.1,0,0,1-.2-2.7,1.9,1.9,0,0,1,3-.2L20,28.2,32.6,15.6a2,2,0,0,1,2.8,2.8l-14,14a1.9,1.9,0,0,1-2.8,0Z"/>
      </g>
    </g>
  </g>
</svg>
