<svg id="invisible_box" data-name="invisible box" xmlns="http://www.w3.org/2000/svg" xmlns:xlink="http://www.w3.org/1999/xlink" width="48" height="48" viewBox="0 0 48 48">
  <defs>
    <clipPath id="clip-path">
      <rect id="Rectangle_337" data-name="Rectangle 337" width="48" height="48" fill="#fff" stroke="#707070" stroke-width="1"/>
    </clipPath>
  </defs>
  <g id="Mask_Group_69" data-name="Mask Group 69" clip-path="url(#clip-path)">
    <path id="notification" d="M31.595,7.291a2.43,2.43,0,1,0-4.861,0V9.114H25.379a10.241,10.241,0,0,0-10.221,9.6L14.621,27.3a17.929,17.929,0,0,1-3.178,9.122A3.93,3.93,0,0,0,14.2,42.572l8.281.994v2.612a6.684,6.684,0,1,0,13.367,0V43.566l8.281-.994a3.929,3.929,0,0,0,2.757-6.146A17.926,17.926,0,0,1,43.708,27.3l-.537-8.588a10.241,10.241,0,0,0-10.221-9.6H31.595Zm-6.215,5.468A6.6,6.6,0,0,0,18.8,18.943l-.537,8.588a21.574,21.574,0,0,1-3.824,10.977.284.284,0,0,0,.2.444l9.084,1.09a45.712,45.712,0,0,0,10.892,0l9.084-1.09a.284.284,0,0,0,.2-.444,21.575,21.575,0,0,1-3.824-10.977l-.537-8.588a6.6,6.6,0,0,0-6.583-6.184Zm3.785,36.456a3.038,3.038,0,0,1-3.038-3.038V44.354H32.2v1.823A3.038,3.038,0,0,1,29.165,49.215Z" transform="translate(-5.165 -4.861)" fill-rule="evenodd"/>
  </g>
</svg>
