<svg id="invisible_box" data-name="invisible box" xmlns="http://www.w3.org/2000/svg" xmlns:xlink="http://www.w3.org/1999/xlink" width="48" height="48" viewBox="0 0 48 48">
  <defs>
    <clipPath id="clip-path">
      <rect id="Rectangle_337" data-name="Rectangle 337" width="48" height="48" fill="#fff" stroke="#707070" stroke-width="1"/>
    </clipPath>
  </defs>
  <g id="Mask_Group_71" data-name="Mask Group 71" clip-path="url(#clip-path)">
    <g id="news">
      <path id="Path_1267" data-name="Path 1267" d="M46.518,11.993H40.253V6.111a1.482,1.482,0,0,0-1.482-1.482H1.482A1.482,1.482,0,0,0,0,6.111V38.016a5.361,5.361,0,0,0,5.355,5.355H42.645A5.362,5.362,0,0,0,48,38.016V13.475A1.482,1.482,0,0,0,46.518,11.993ZM2.964,38.016V7.592H37.289V38.016a5.321,5.321,0,0,0,.566,2.392H5.355A2.394,2.394,0,0,1,2.964,38.016Zm39.681,2.392a2.394,2.394,0,0,1-2.392-2.392V14.957h4.783V38.016A2.394,2.394,0,0,1,42.645,40.407Z"/>
      <path id="Path_1268" data-name="Path 1268" d="M7.775,15.485h24.7a1.482,1.482,0,0,0,0-2.964H7.775a1.482,1.482,0,1,0,0,2.964Z"/>
      <path id="Path_1269" data-name="Path 1269" d="M7.707,22.9a4.457,4.457,0,1,0,4.457-4.458A4.463,4.463,0,0,0,7.707,22.9Zm5.951,0A1.494,1.494,0,1,1,12.165,21.4,1.5,1.5,0,0,1,13.658,22.9Z"/>
      <path id="Path_1270" data-name="Path 1270" d="M7.775,35.569a1.482,1.482,0,0,0,1.482-1.482V32.435a1.4,1.4,0,0,1,1.4-1.4h3.018a1.4,1.4,0,0,1,1.4,1.4v1.652a1.482,1.482,0,0,0,2.964,0V32.435a4.367,4.367,0,0,0-4.362-4.361H10.655a4.366,4.366,0,0,0-4.362,4.361v1.652A1.482,1.482,0,0,0,7.775,35.569Z"/>
      <path id="Path_1271" data-name="Path 1271" d="M32.478,19.178H21.065a1.482,1.482,0,0,0,0,2.964H32.478a1.482,1.482,0,0,0,0-2.964Z"/>
      <path id="Path_1272" data-name="Path 1272" d="M32.478,32.491H21.065a1.482,1.482,0,0,0,0,2.964H32.478a1.482,1.482,0,0,0,0-2.964Z"/>
      <path id="Path_1273" data-name="Path 1273" d="M32.478,25.834H21.065a1.482,1.482,0,0,0,0,2.964H32.478a1.482,1.482,0,0,0,0-2.964Z"/>
    </g>
  </g>
</svg>
