<svg id="invisible_box" data-name="invisible box" xmlns="http://www.w3.org/2000/svg" xmlns:xlink="http://www.w3.org/1999/xlink" width="48" height="48" viewBox="0 0 48 48">
  <defs>
    <clipPath id="clip-path">
      <rect id="Rectangle_337" data-name="Rectangle 337" width="48" height="48" fill="#fff" stroke="#707070" stroke-width="1"/>
    </clipPath>
  </defs>
  <g id="Mask_Group_67" data-name="Mask Group 67" clip-path="url(#clip-path)">
    <g id="chat">
      <path id="Path_1254" data-name="Path 1254" d="M18.887,44.133h0a8.179,8.179,0,0,0-8.155-8.155h0a8.179,8.179,0,0,0-8.155,8.155h0A2.532,2.532,0,0,0,5.11,46.665H16.355A2.532,2.532,0,0,0,18.887,44.133Z" fill="rgba(255,255,255,0)"/>
      <g id="Group_736" data-name="Group 736">
        <path id="Path_1255" data-name="Path 1255" d="M16.355,48H5.11a3.871,3.871,0,0,1-3.867-3.867,9.489,9.489,0,0,1,18.979,0A3.872,3.872,0,0,1,16.355,48ZM10.733,37.313a6.827,6.827,0,0,0-6.82,6.82,1.2,1.2,0,0,0,1.2,1.2H16.355a1.2,1.2,0,0,0,1.2-1.2A6.827,6.827,0,0,0,10.733,37.313Z"/>
        <path id="Path_1256" data-name="Path 1256" d="M10.733,37.215a7.277,7.277,0,1,1,7.277-7.277A7.285,7.285,0,0,1,10.733,37.215Zm0-11.884a4.607,4.607,0,1,0,4.607,4.607A4.612,4.612,0,0,0,10.733,25.331Z"/>
      </g>
      <path id="Path_1257" data-name="Path 1257" d="M45.422,44.133h0a8.179,8.179,0,0,0-8.155-8.155h0a8.179,8.179,0,0,0-8.155,8.155h0a2.532,2.532,0,0,0,2.532,2.532H42.889A2.532,2.532,0,0,0,45.422,44.133Z" fill="rgba(255,255,255,0)"/>
      <g id="Group_737" data-name="Group 737">
        <path id="Path_1258" data-name="Path 1258" d="M42.89,48H31.645a3.871,3.871,0,0,1-3.867-3.867,9.489,9.489,0,0,1,18.979,0A3.872,3.872,0,0,1,42.89,48ZM37.267,37.313a6.827,6.827,0,0,0-6.82,6.82,1.2,1.2,0,0,0,1.2,1.2H42.889a1.2,1.2,0,0,0,1.2-1.2A6.827,6.827,0,0,0,37.267,37.313Z"/>
        <path id="Path_1259" data-name="Path 1259" d="M37.267,37.215a7.277,7.277,0,1,1,7.277-7.277A7.285,7.285,0,0,1,37.267,37.215Zm0-11.884a4.607,4.607,0,1,0,4.607,4.607A4.612,4.612,0,0,0,37.267,25.331Z"/>
        <path id="Path_1260" data-name="Path 1260" d="M34.89,21.169a1.859,1.859,0,0,1-1.292-.524l-4.468-4.3a1.335,1.335,0,1,1,1.851-1.924l3.3,3.178.273-2.37a1.335,1.335,0,0,1,1.326-1.182H38.83V2.67H9.17v11.38h2.945a1.335,1.335,0,0,1,1.326,1.182l.273,2.37,3.3-3.179a1.335,1.335,0,0,1,1.851,1.924l-4.468,4.3a1.869,1.869,0,0,1-3.153-1.133l-.323-2.793H8.967A2.468,2.468,0,0,1,6.5,14.254V2.466A2.468,2.468,0,0,1,8.966,0H39.033A2.468,2.468,0,0,1,41.5,2.466V14.253a2.468,2.468,0,0,1-2.466,2.466h-1.96l-.323,2.793a1.858,1.858,0,0,1-1.225,1.545A1.879,1.879,0,0,1,34.89,21.169Z"/>
        <path id="Path_1261" data-name="Path 1261" d="M24.751,16.719h-1.5a1.335,1.335,0,1,1,0-2.67h1.5a1.335,1.335,0,1,1,0,2.67Z"/>
      </g>
    </g>
  </g>
</svg>
