<svg xmlns="http://www.w3.org/2000/svg" xmlns:xlink="http://www.w3.org/1999/xlink" width="48" height="48" viewBox="0 0 48 48">
  <defs>
    <clipPath id="clip-path">
      <rect id="Rectangle_337" data-name="Rectangle 337" width="48" height="48" fill="#fff" stroke="#707070" stroke-width="1"/>
    </clipPath>
  </defs>
  <g id="Group_740" data-name="Group 740" transform="translate(-12756 -2022)">
    <path id="Path_1231" data-name="Path 1231" d="M15.4,28.2a1.9,1.9,0,0,0,3,.2L22,24.8V36a2,2,0,0,0,4,0V24.8l3.6,3.6a1.9,1.9,0,0,0,3-.2,2.1,2.1,0,0,0-.2-2.7l-7-6.9a1.9,1.9,0,0,0-2.8,0l-7,6.9a2.1,2.1,0,0,0-.2,2.7Z" transform="translate(12756 2025.994)"/>
    <g id="invisible_box" data-name="invisible box" transform="translate(12756 2022)">
      <g id="Mask_Group_64" data-name="Mask Group 64" clip-path="url(#clip-path)">
        <g id="Layer_2" data-name="Layer 2">
          <g id="invisible_box-2" data-name="invisible box">
            <rect id="Rectangle_338" data-name="Rectangle 338" width="48" height="48" fill="none"/>
          </g>
          <g id="icons_Q2" data-name="icons Q2">
            <path id="Path_1244" data-name="Path 1244" d="M19.3,10l4.9,4.8L25.3,16H42V38H6V10H19.3M21,6H4A2,2,0,0,0,2,8V40a2,2,0,0,0,2,2H44a2,2,0,0,0,2-2V14a2,2,0,0,0-2-2H27Z"/>
          </g>
        </g>
      </g>
    </g>
  </g>
</svg>
